<svg xmlns="http://www.w3.org/2000/svg" width="1254" height="1254" viewBox="0 0 1254 1254" role="img" aria-label="Simbolo topografico MEUS MAPAS"><title>Simbolo topografico MEUS MAPAS</title><rect x="0" y="0" width="1254" height="1254" fill="#F8F6F1"/><path fill="#151515" fill-rule="evenodd" d="M618,213 L617,214 L609,214 L608,215 L603,215 L602,216 L591,218 L585,221 L580,222 L575,225 L573,225 L548,240 L533,252 L508,277 L450,346 L404,395 L363,432 L295,486 L268,512 L258,524 L248,539 L236,563 L229,587 L228,602 L227,603 L227,616 L228,617 L228,625 L229,626 L229,631 L230,632 L232,644 L239,663 L247,678 L265,702 L284,721 L298,733 L324,753 L335,760 L377,791 L400,810 L424,833 L458,873 L512,948 L529,968 L539,978 L562,996 L584,1007 L593,1010 L601,1011 L602,1012 L607,1012 L608,1013 L635,1013 L636,1012 L647,1011 L667,1004 L683,995 L704,978 L726,955 L746,931 L793,870 L826,834 L851,811 L872,794 L955,736 L971,723 L990,704 L1007,680 L1015,662 L1017,653 L1019,649 L1020,639 L1021,638 L1022,609 L1021,608 L1021,601 L1020,600 L1020,595 L1019,594 L1017,582 L1009,560 L994,534 L978,514 L957,493 L942,480 L884,435 L847,403 L809,364 L783,333 L776,323 L771,318 L764,308 L733,270 L708,245 L692,233 L669,221 L657,217 L649,216 L648,215 L643,215 L642,214Z M704,401 L717,405 L729,411 L747,424 L773,451 L813,506 L835,532 L856,553 L898,588 L915,605 L927,622 L932,632 L935,641 L936,649 L937,650 L937,657 L938,658 L937,674 L931,695 L922,712 L912,725 L889,747 L859,769 L838,786 L794,829 L793,828 L793,823 L792,822 L789,807 L784,794 L784,791 L781,782 L781,778 L780,777 L780,759 L781,758 L781,754 L783,748 L790,735 L802,722 L808,717 L841,696 L856,682 L862,674 L869,660 L871,654 L871,650 L872,649 L872,644 L873,643 L872,623 L868,610 L862,598 L855,588 L849,581 L835,568 L790,535 L770,519 L748,506 L746,506 L738,502 L726,500 L725,499 L707,499 L706,500 L702,500 L692,503 L682,508 L672,515 L659,529 L651,541 L645,554 L641,566 L640,574 L639,575 L639,580 L638,581 L638,590 L637,591 L638,613 L639,614 L640,624 L642,628 L642,631 L646,643 L654,660 L656,662 L681,710 L681,712 L689,729 L692,740 L694,743 L694,746 L698,756 L698,759 L702,772 L702,776 L703,777 L704,786 L705,787 L705,793 L706,794 L706,802 L707,803 L707,837 L706,838 L706,844 L705,845 L703,858 L697,875 L689,890 L680,902 L668,914 L654,924 L638,931 L630,932 L629,933 L618,933 L617,932 L610,931 L603,927 L595,918 L591,907 L591,890 L592,889 L593,881 L598,866 L607,846 L612,830 L614,827 L614,824 L618,813 L618,809 L620,803 L620,796 L621,795 L621,772 L620,771 L619,760 L615,747 L606,729 L599,719 L590,709 L574,696 L559,687 L532,676 L529,676 L522,673 L519,673 L508,669 L493,666 L489,664 L486,664 L479,661 L473,660 L449,649 L438,641 L431,634 L426,626 L424,620 L424,616 L423,615 L423,610 L425,603 L429,596 L442,584 L452,579 L469,574 L473,574 L474,573 L478,573 L484,571 L489,571 L490,570 L495,570 L500,568 L512,566 L519,563 L522,563 L533,558 L535,558 L560,544 L570,536 L586,520 L593,511 L607,489 L629,443 L639,428 L648,418 L661,408 L675,402 L684,401 L685,400Z M677,334 L678,335 L683,335 L684,336 L692,337 L706,342 L722,350 L756,372 L890,472 L939,512 L959,532 L968,543 L977,556 L986,573 L994,598 L995,612 L996,613 L996,628 L995,629 L995,636 L994,637 L993,646 L989,658 L981,674 L967,692 L950,708 L949,706 L953,698 L957,684 L957,680 L958,679 L958,673 L959,672 L959,651 L958,650 L958,644 L953,626 L945,610 L937,598 L912,572 L877,543 L847,513 L828,490 L791,439 L781,427 L762,408 L745,395 L724,384 L712,380 L702,379 L701,378 L681,378 L680,379 L671,380 L651,388 L638,397 L626,409 L614,426 L588,479 L577,496 L570,505 L555,520 L546,527 L538,532 L517,542 L496,548 L492,548 L491,549 L487,549 L486,550 L482,550 L481,551 L477,551 L476,552 L472,552 L471,553 L467,553 L466,554 L455,556 L443,560 L429,567 L422,572 L413,581 L407,590 L402,603 L402,609 L401,610 L401,617 L402,618 L402,623 L403,624 L404,631 L408,639 L416,650 L427,660 L439,668 L458,677 L486,686 L489,686 L497,689 L508,691 L515,694 L518,694 L535,700 L552,708 L568,719 L582,733 L589,743 L594,753 L599,771 L599,777 L600,778 L599,800 L598,801 L598,805 L592,826 L578,859 L572,877 L571,885 L570,886 L570,892 L569,893 L569,906 L570,907 L570,912 L571,913 L572,920 L580,935 L589,944 L595,948 L607,953 L617,954 L618,955 L636,954 L655,948 L674,937 L678,933 L683,930 L693,920 L705,905 L715,887 L715,885 L718,880 L722,869 L722,866 L726,853 L727,842 L728,841 L729,807 L728,806 L728,797 L727,796 L727,788 L726,787 L725,776 L724,775 L724,771 L722,766 L720,754 L717,747 L717,744 L711,726 L708,721 L705,711 L687,674 L685,672 L676,654 L674,652 L674,650 L672,648 L672,646 L665,632 L661,618 L661,614 L660,613 L660,607 L659,606 L659,587 L660,586 L660,580 L666,560 L675,544 L680,538 L688,531 L694,527 L703,523 L711,522 L712,521 L721,521 L722,522 L727,522 L737,525 L754,534 L821,584 L838,601 L842,606 L848,617 L851,627 L852,639 L851,640 L850,650 L846,659 L842,665 L828,679 L795,700 L775,719 L767,731 L760,749 L759,762 L758,763 L758,774 L759,775 L759,782 L760,783 L762,795 L764,799 L764,802 L769,815 L769,818 L772,827 L772,833 L773,834 L773,852 L772,855 L760,869 L715,929 L696,951 L679,967 L664,978 L652,984 L639,988 L634,988 L633,989 L613,989 L612,988 L603,987 L589,982 L572,972 L555,956 L548,946 L544,938 L540,927 L539,919 L538,918 L538,913 L537,912 L537,890 L538,889 L538,880 L539,879 L539,873 L540,872 L540,864 L541,863 L541,855 L542,854 L542,841 L543,840 L543,827 L542,826 L541,808 L540,807 L537,792 L533,781 L526,767 L518,755 L501,736 L477,717 L474,716 L456,704 L400,675 L378,661 L365,651 L346,632 L334,613 L334,611 L329,600 L328,592 L327,591 L327,574 L328,573 L329,564 L335,550 L342,540 L358,525 L372,516 L389,508 L411,500 L414,500 L421,497 L424,497 L434,493 L437,493 L447,489 L453,488 L456,486 L474,480 L494,470 L507,462 L526,447 L551,421 L585,378 L607,356 L615,350 L633,340 L644,336 L654,335 L655,334Z M642,239 L643,240 L647,240 L657,243 L672,250 L677,254 L680,255 L695,267 L712,284 L724,298 L764,350 L762,351 L759,348 L732,331 L714,322 L695,315 L691,315 L690,314 L686,314 L680,312 L661,311 L660,312 L651,312 L650,313 L641,314 L621,321 L605,330 L582,349 L569,363 L547,390 L544,395 L526,416 L516,426 L498,441 L481,452 L458,463 L429,473 L426,473 L397,483 L394,483 L391,485 L386,486 L381,489 L374,491 L360,498 L342,510 L329,522 L321,532 L312,548 L306,567 L305,589 L306,590 L306,597 L312,617 L320,633 L326,642 L338,656 L356,672 L373,684 L393,695 L395,697 L402,700 L404,702 L447,724 L466,736 L478,745 L498,765 L504,773 L514,792 L519,809 L520,821 L521,822 L521,849 L520,850 L520,859 L519,860 L519,868 L518,869 L517,885 L516,886 L516,908 L514,909 L485,866 L464,838 L452,824 L424,796 L399,775 L365,750 L351,741 L313,712 L283,683 L268,662 L262,650 L257,636 L256,628 L255,627 L255,622 L254,621 L254,596 L255,595 L255,590 L260,572 L268,555 L285,531 L318,499 L384,448 L414,422 L456,379 L480,351 L526,294 L551,269 L573,253 L597,242 L609,240 L610,239 L616,239 L617,238Z"/><path fill="#BB8429" fill-rule="evenodd" d="M767,601 L766,602 L762,602 L755,605 L746,613 L741,623 L741,626 L740,627 L740,635 L741,636 L742,642 L745,648 L750,654 L756,658 L764,661 L776,661 L777,660 L783,659 L788,656 L797,646 L800,639 L800,632 L801,631 L800,629 L800,623 L794,612 L786,605 L779,602Z"/></svg>